<svg height="512" viewBox="0 0 128 128" width="512" xmlns="http://www.w3.org/2000/svg"><g><path d="m1.75 100.345h124.5v8.25h-124.5z" fill="#66666d"/><path d="m14 76.389h18.25a7 7 0 0 1 7 7v16.955a0 0 0 0 1 0 0h-32.25a0 0 0 0 1 0 0v-16.955a7 7 0 0 1 7-7z" fill="#ff7d47"/><path d="m54.875 76.389h18.25a7 7 0 0 1 7 7v16.955a0 0 0 0 1 0 0h-32.25a0 0 0 0 1 0 0v-16.955a7 7 0 0 1 7-7z" fill="#ff7d47"/><path d="m95.75 76.389h18.25a7 7 0 0 1 7 7v16.955a0 0 0 0 1 0 0h-32.25a0 0 0 0 1 0 0v-16.955a7 7 0 0 1 7-7z" fill="#ff7d47"/><g fill="#66666d"><path d="m14 76.389h18.25a6.979 6.979 0 0 1 5.312 2.45v-2.957a6 6 0 0 0 -4.115-5.7l-6.009-1.982a4.435 4.435 0 0 0 1.708-3.487v-4.113a4.463 4.463 0 0 0 -4.463-4.463h-3.116a4.463 4.463 0 0 0 -4.467 4.463v4.11a4.435 4.435 0 0 0 1.712 3.49l-6.012 1.986a6 6 0 0 0 -4.116 5.7v2.957a6.979 6.979 0 0 1 5.316-2.454z"/><path d="m54.875 76.389h18.25a6.979 6.979 0 0 1 5.312 2.45v-2.957a6 6 0 0 0 -4.115-5.7l-6.009-1.982a4.435 4.435 0 0 0 1.708-3.487v-4.113a4.463 4.463 0 0 0 -4.463-4.463h-3.116a4.463 4.463 0 0 0 -4.463 4.463v4.11a4.435 4.435 0 0 0 1.708 3.49l-6.009 1.989a6 6 0 0 0 -4.116 5.7v2.957a6.979 6.979 0 0 1 5.313-2.457z"/><path d="m95.75 76.389h18.25a6.979 6.979 0 0 1 5.312 2.45v-2.957a6 6 0 0 0 -4.115-5.7l-6.009-1.982a4.435 4.435 0 0 0 1.712-3.49v-4.11a4.463 4.463 0 0 0 -4.463-4.463h-3.116a4.463 4.463 0 0 0 -4.467 4.463v4.11a4.435 4.435 0 0 0 1.708 3.487l-6.009 1.989a6 6 0 0 0 -4.116 5.7v2.957a6.979 6.979 0 0 1 5.313-2.454z"/></g><path d="m23.625 24.405v31.727h1.058a4.463 4.463 0 0 1 4.463 4.468v4.11a4.435 4.435 0 0 1 -1.708 3.49l6.009 1.989a6 6 0 0 1 4.115 5.7v.181h12v-.181a6 6 0 0 1 4.116-5.7l6.009-1.989a4.435 4.435 0 0 1 -1.708-3.487v-4.113a4.463 4.463 0 0 1 4.463-4.463h3.116a4.463 4.463 0 0 1 4.463 4.463v4.11a4.435 4.435 0 0 1 -1.708 3.49l6.009 1.989a6 6 0 0 1 4.115 5.7v.181h12v-.181a6 6 0 0 1 4.116-5.7l6.009-1.989a4.435 4.435 0 0 1 -1.708-3.487v-4.113a4.463 4.463 0 0 1 4.463-4.463h1.058v-31.732a5 5 0 0 0 -5-5h-70.75a5 5 0 0 0 -5 5z" fill="#fff16b"/><path d="m55.656 49.063v-15.468l17.156 7.734z" fill="#ff7d47"/></g></svg>